<?xml version="1.0" encoding="UTF-8"?>
<svg width="600px" height="450px" viewBox="0 0 600 450" version="1.1" xmlns="http://www.w3.org/2000/svg" xmlns:xlink="http://www.w3.org/1999/xlink">
    <!-- Generator: Sketch 63.1 (92452) - https://sketch.com -->
    <title>说明</title>
    <desc>Created with Sketch.</desc>
    <defs>
        <path d="M20.9752279,20.1767426 C21.4596397,20.2422574 22.5687574,20.4976985 24.3495662,21.4857132 C21.9506691,25.0063015 17.9105956,27.3198309 13.3291985,27.3198309 C8.74713971,27.3198309 4.70706618,25.0063015 2.30816912,21.4857132 C4.08897794,20.4976985 5.19809559,20.2422574 5.68250735,20.1767426 C7.47721324,22.0435809 10.2354485,23.2393897 13.3291985,23.2393897 C16.4229485,23.2393897 19.1805221,22.0435809 20.9752279,20.1767426 Z M65.6088088,6.73980882 L65.6088088,12.3290735 C65.6088088,13.446305 64.7423799,14.3613092 63.6448454,14.4387628 L63.4938088,14.4440735 L61.9694983,14.4449835 C62.2172567,15.2566123 62.5292379,16.0304426 62.8693063,16.7485391 L65.608875,15.3502941 L65.608875,17.0119853 L63.5517698,18.0620433 C64.700581,20.0936074 65.8980413,21.4447324 65.9821089,21.5386501 L65.9868088,21.5438824 L64.1735735,21.5438824 C61.800016,19.1459474 60.6049473,15.9046318 60.1579014,14.4432207 L58.2813676,14.4437794 L58.2822132,19.2779338 C58.2822132,19.6607096 58.5663631,19.9762013 58.9353593,20.0261251 L59.0379485,20.0330074 L61.0014044,20.0330074 L61.0014044,21.5438162 L58.8864044,21.5438162 C57.769173,21.5438162 56.8541688,20.6773873 56.7767152,19.5798528 L56.7714044,19.4288162 L56.7716029,6.73980882 L65.6088088,6.73980882 Z M118.513588,6.73980882 L118.513588,8.25061765 L112.621897,8.25061765 C111.915599,8.25061765 111.334749,8.78933533 111.268857,9.47891329 L111.262632,9.60988235 L111.262368,10.3647794 L118.211029,10.3653529 L118.211029,11.8761618 L118.205742,12.2432088 C118.129643,14.7128759 117.289097,16.578985 116.213551,17.9662144 C116.873796,18.6286474 117.707691,19.270069 118.758927,19.8443346 L119.117449,20.0332059 L119.117449,21.5433529 C119.117449,21.5433529 117.040298,20.9190941 115.141907,19.1393813 C113.306639,20.8599936 111.304491,21.5004049 111.173053,21.5411872 L111.166213,21.5432868 L111.166213,20.0331397 C112.389321,19.4119929 113.33775,18.7014311 114.072745,17.9644841 C113.088238,16.6975779 112.301725,15.0299441 112.115412,12.8672883 L112.088846,12.4804853 L113.710169,12.4804853 C113.746124,13.3340187 113.983334,14.9794202 115.14133,16.6763073 C116.766054,14.2968049 116.579633,12.0185218 116.566843,11.8826291 L116.566213,11.8762279 L111.262368,11.8757794 L111.262632,14.0662059 C111.262632,18.3111121 110.113914,21.3865399 110.056478,21.5376583 L110.05425,21.5434853 L108.543441,21.5434853 C108.543441,21.5434853 109.69216,18.1596098 109.749596,14.3593081 L109.751824,14.0662059 L109.751824,9.459 C109.751824,8.01306863 110.880331,6.83039434 112.305324,6.74477228 L112.471015,6.73980882 L118.513588,6.73980882 Z M91.6471324,6.73954412 L91.6471324,20.0330735 L94.0645588,20.0330735 L94.0645588,6.73954412 L95.6501471,6.73954412 L95.6501471,20.0330735 L100.786103,20.0330735 L100.786103,21.5432206 L84.9249265,21.5432206 L84.9249265,20.0330735 L90.0608824,20.0330735 L90.0608824,6.73954412 L91.6471324,6.73954412 Z M55.8655147,6.73974265 L55.8655147,19.4290809 C55.8655147,20.5463123 54.9990858,21.460711 53.9015513,21.538112 L53.7505147,21.5434191 L50.1247059,21.5434191 L50.1247059,6.73974265 L55.8655147,6.73974265 Z M75.2509191,6.43797794 L74.9573676,7.26877941 L82.53,7.26895588 L82.53,8.85520588 L74.3973676,8.85477941 L73.7973676,10.5537794 L83.8892647,10.5546176 L83.8892647,12.1408676 L73.2383676,12.1407794 L72.6383676,13.8397794 L82.3787868,13.8398162 L82.3787868,15.4260662 L78.0197968,19.2923877 C78.6106488,19.4870295 79.2107568,19.7077291 79.810875,19.9579632 L79.810875,21.5435515 C79.810875,21.5435515 74.4366838,19.666125 70.1431544,19.4292132 L70.1431544,17.8429632 L70.166046,17.843556 C70.4318124,17.8511645 72.9798902,17.9433488 76.1431852,18.7469528 L79.8859191,15.4260662 L70.3412868,15.4260662 L71.5003676,12.1407794 L67.2723529,12.1408676 L67.2723529,10.5546176 L72.0603676,10.5537794 L72.6603676,8.85477941 L68.6322794,8.85520588 L68.6322794,7.26895588 L73.2203676,7.26877941 L73.5137868,6.43797794 L75.2509191,6.43797794 Z M31.6935,6.89108824 L32.7900441,7.19020588 C33.8436533,7.47707179 34.6385144,8.30097792 34.9128309,9.31774162 L35.4700588,9.00622059 L35.4700588,10.6679118 L35.0163676,10.9217794 L35.0168824,18.8246912 C35.0168824,20.2712598 33.8877611,21.4527304 32.4633137,21.5382624 L32.2976912,21.5432206 L31.6935,21.5432206 L31.6935,20.0330735 L32.1461471,20.0330735 C32.8530675,20.0330735 33.4339549,19.4937696 33.4998485,18.8046744 L33.5060735,18.6738088 L33.5053676,16.6007794 L31.6933676,17.6164412 L31.6933676,15.95475 L33.5053676,14.9397794 L33.5053676,11.7677794 L31.6933676,12.78225 L31.6933676,11.1205588 L33.5053676,10.1057794 L33.5060735,10.0496912 C33.5060735,9.41351471 33.1088853,8.85170294 32.5216539,8.63327549 L32.3929853,8.59182353 L31.6935,8.40123529 L31.6935,6.89108824 Z M47.4039926,10.2894485 L47.4039926,21.5434191 L38.9446544,21.5434191 C37.3352899,21.5434191 36.0200579,20.2856644 35.9281655,18.6999555 L35.9230368,18.5224632 L35.9230368,10.2894485 L47.4039926,10.2894485 Z M107.485809,6.73954412 L107.485368,9.76077941 L108.845735,9.76116176 L108.845735,11.2719706 L104.615368,11.2717794 L104.615368,12.7817794 L108.241544,12.7821176 L108.241544,21.5432206 L106.730735,21.5432206 L106.730368,14.2917794 L104.614984,14.2928392 C104.585234,18.4201872 103.753177,21.3892427 103.710855,21.5376583 L103.709184,21.5434853 L102.199037,21.5434853 C102.199037,21.5434853 103.060261,18.1596098 103.103322,14.3593081 L103.104993,14.0662059 L103.104993,6.73980882 L104.615801,6.73980882 L104.615368,9.76077941 L105.974368,9.76077941 L105.975,6.73954412 L107.485809,6.73954412 Z M4.52766176,18.6594485 C4.65935294,18.8844485 4.80295588,19.1034926 4.95847059,19.3165809 C3.49927941,19.7149632 2.21479412,20.4184191 1.79986765,20.6579779 C1.55567647,20.2384191 1.33133824,19.8062868 1.13413235,19.3576103 C2.80575,18.8566544 3.98104412,18.7044485 4.52766176,18.6594485 Z M22.1304706,18.6594485 C22.6770882,18.7044485 23.8523824,18.8566544 25.524,19.3582721 C25.3261324,19.8062868 25.1017941,20.2384191 24.8582647,20.6579779 C24.4433382,20.4184191 23.1588529,19.7149632 21.6996618,19.3165809 C21.8551765,19.1034926 21.9987794,18.8844485 22.1304706,18.6594485 Z M54.3543676,17.1127794 L51.6353676,17.1127794 L51.6355147,20.0332721 L53.5996324,20.0332721 C53.9818015,20.0332721 54.2977987,19.7491222 54.347811,19.380126 L54.3547059,19.2775368 L54.3543676,17.1127794 Z M40.9073676,16.6717794 L37.4333676,16.6717794 L37.4338456,18.3715809 C37.4338456,19.2411397 38.1014324,19.9544927 38.9521397,20.0271738 L39.0955368,20.0332721 L40.9073676,20.0327794 L40.9073676,16.6717794 Z M45.8923676,16.6717794 L42.4183676,16.6717794 L42.4183676,20.0327794 L45.8931838,20.0332721 L45.8923676,16.6717794 Z M17.4249265,11.2708456 C19.2275735,11.2708456 20.68875,12.7326838 20.68875,14.5346691 C20.68875,16.2751559 19.3266069,17.6979327 17.6101432,17.7939857 L17.4249265,17.7991544 L17.4090441,17.7991544 C17.4090441,19.0009191 16.4349265,19.9750368 15.2331618,19.9750368 C14.4132353,19.9750368 13.6998529,19.5217279 13.3292647,18.8526838 C12.9580147,19.5217279 12.2446324,19.9750368 11.4247059,19.9750368 C10.2751918,19.9750368 9.33395975,19.0837836 9.25428647,17.954554 L9.24882353,17.7991544 L9.23294118,17.7991544 C7.43029412,17.7991544 5.96911765,16.3373162 5.96911765,14.5346691 C5.96911765,12.7326838 7.43029412,11.2708456 9.23294118,11.2708456 C11.0355882,11.2708456 12.4974265,12.7326838 12.4974265,14.5346691 C12.4974265,15.8663918 11.7003076,17.0108396 10.5576791,17.5192615 L10.38375,17.5906985 L10.2857457,17.6442874 C9.86605588,17.919725 9.92572059,18.5774779 10.2672794,18.9493015 C10.5630882,19.2464338 10.9727206,19.4317279 11.4247059,19.4317279 C12.1526471,19.4317279 12.7700735,18.9545956 12.9798529,18.2954779 C12.6271324,18.1962132 12.3769853,17.9500368 12.3769853,17.6634926 C12.3769853,17.2876103 12.8031618,16.9831985 13.3292647,16.9831985 C13.8547059,16.9831985 14.2808824,17.2876103 14.2808824,17.6634926 C14.2808824,17.9500368 14.0313971,18.1962132 13.6780147,18.2954779 C13.8884559,18.9545956 14.5052206,19.4317279 15.2331618,19.4317279 C15.6858088,19.4317279 16.0947794,19.2464338 16.3905882,18.9493015 C16.7321471,18.5774779 16.7918118,17.919725 16.372122,17.6442874 L16.2747794,17.5913603 L16.1001885,17.5192615 C14.95756,17.0108396 14.1604412,15.8663918 14.1604412,14.5346691 C14.1604412,12.7326838 15.6222794,11.2708456 17.4249265,11.2708456 Z M3.80051471,16.9693676 C3.87860294,17.2420147 3.97323529,17.5093676 4.08242647,17.7714265 C2.47301471,17.9984118 1.26595588,18.3431912 0.795441176,18.4901029 C0.643235294,18.0659118 0.512205882,17.6337794 0.403014706,17.1903971 C1.86617647,16.9680441 3.14735294,16.9554706 3.80051471,16.9693676 Z M26.2553162,17.1903971 C26.146125,17.6331176 26.0144338,18.0659118 25.8628897,18.4901029 C25.3917132,18.3431912 24.1846544,17.9984118 22.5752426,17.7714265 C22.6850956,17.5093676 22.7797279,17.2420147 22.8571544,16.9693676 C23.5103162,16.9554706 24.7914926,16.9680441 26.2553162,17.1903971 Z M86.9642206,7.26869118 C87.6650294,13.6130294 89.3809853,17.2388382 89.3809853,17.2388382 L87.6438529,17.2388382 C85.5500294,12.2537647 85.2270882,7.26869118 85.2270882,7.26869118 L86.9642206,7.26869118 Z M100.483941,7.26842647 C100.483941,7.26842647 100.161,12.2535 98.0671765,17.2385735 L96.3300441,17.2385735 C96.3300441,17.2385735 98.046,13.6134265 98.7468088,7.26842647 L100.483941,7.26842647 Z M9.24882353,12.6301103 C8.97842647,12.6301103 8.75412794,12.8279051 8.71197221,13.0864857 L8.70485294,13.1747426 L8.70485294,15.8952574 C8.70485294,16.1950368 8.94838235,16.4385662 9.24882353,16.4385662 C9.51922059,16.4385662 9.74351912,16.2413074 9.78567485,15.9833164 L9.79279412,15.8952574 L9.79279412,13.1747426 C9.79279412,12.8743015 9.54926471,12.6301103 9.24882353,12.6301103 Z M17.4090441,12.6301103 C17.1386471,12.6301103 16.9143485,12.8279051 16.8721928,13.0864857 L16.8650735,13.1747426 L16.8650735,15.8952574 C16.8650735,16.1950368 17.1086029,16.4385662 17.4090441,16.4385662 C17.6794412,16.4385662 17.9042757,16.2413074 17.9465387,15.9833164 L17.9536765,15.8952574 L17.9536765,13.1747426 C17.9536765,12.8743015 17.7094853,12.6301103 17.4090441,12.6301103 Z M13.3290662,0.661632353 C20.6905368,0.661632353 26.6576691,6.62942647 26.6576691,13.9908971 C26.6576691,14.7830294 26.5756103,15.5553088 26.4432574,16.3097206 C25.9641397,16.2236912 24.6617868,16.0271471 23.0484044,16.0814118 C23.0960515,15.7525147 23.1218603,15.4183235 23.1218603,15.0781765 C23.1218603,13.6917794 22.7056103,12.3847941 21.9730368,11.2412647 C21.9710515,11.1737647 21.8876691,8.17861765 21.0320074,5.78964706 C20.9843603,5.65729412 20.8414191,5.58251471 20.7057574,5.61957353 C18.8157574,6.13839706 17.0150956,7.44405882 16.9475956,7.49369118 C15.8278897,7.12244118 14.6069338,6.91795588 13.3290662,6.91795588 C12.0505368,6.91795588 10.8302426,7.12244118 9.71053676,7.49369118 C9.64303676,7.44405882 7.842375,6.13839706 5.952375,5.61957353 C5.81671324,5.58251471 5.67377206,5.65729412 5.626125,5.78964706 C4.77046324,8.17861765 4.68641912,11.1737647 4.68509559,11.2412647 C3.95252206,12.3847941 3.53627206,13.6917794 3.53627206,15.0781765 C3.53627206,15.4183235 3.56141912,15.7525147 3.60972794,16.0814118 C1.99634559,16.0271471 0.693330882,16.2236912 0.214875,16.3097206 C0.0818602941,15.5553088 -0.000198529411,14.7830294 -0.000198529411,13.9908971 C-0.000198529411,6.62942647 5.96759559,0.661632353 13.3290662,0.661632353 Z M54.3543676,12.6807794 L51.6353676,12.6807794 L51.6353676,15.6017794 L54.3543676,15.6017794 L54.3543676,12.6807794 Z M40.9073676,11.8007794 L37.4338456,11.8009191 L37.4333676,15.1617794 L40.9073676,15.1617794 L40.9073676,11.8007794 Z M45.8931838,11.8009191 L42.4183676,11.8007794 L42.4183676,15.1617794 L45.8923676,15.1617794 L45.8931838,11.8009191 Z M64.0973676,11.3457794 L58.2813676,11.3457794 L58.2813676,12.9327794 L63.3429265,12.9332647 C63.7257022,12.9332647 64.0411939,12.6491149 64.0911177,12.2806284 L64.098,12.1781912 L64.0973676,11.3457794 Z M54.3547059,8.25055147 L51.6355147,8.25055147 L51.6353676,11.1707794 L54.3543676,11.1707794 L54.3547059,8.25055147 Z M64.098,8.25061765 L58.2813676,8.24977941 L58.2813676,9.83577941 L64.0973676,9.83577941 L64.098,8.25061765 Z M38.9441912,6.43777941 L38.9433676,7.34377941 L44.4193676,7.34377941 L44.4196324,6.43777941 L45.9304412,6.43777941 L45.9303676,7.34377941 L47.4035294,7.34439706 L47.4035294,8.85520588 L45.9303676,8.85477941 L45.9304412,9.45873529 L44.4196324,9.45873529 L44.4193676,8.85477941 L38.9433676,8.85477941 L38.9441912,9.45873529 L37.4333824,9.45873529 L37.4333676,8.85477941 L35.9225735,8.85520588 L35.9225735,7.34439706 L37.4333676,7.34377941 L37.4333824,6.43777941 L38.9441912,6.43777941 Z" id="path-1"></path>
        <filter x="-0.4%" y="-1.9%" width="100.8%" height="103.8%" filterUnits="objectBoundingBox" id="filter-2">
            <feGaussianBlur stdDeviation="0.5" in="SourceAlpha" result="shadowBlurInner1"></feGaussianBlur>
            <feOffset dx="0" dy="0" in="shadowBlurInner1" result="shadowOffsetInner1"></feOffset>
            <feComposite in="shadowOffsetInner1" in2="SourceAlpha" operator="arithmetic" k2="-1" k3="1" result="shadowInnerInner1"></feComposite>
            <feColorMatrix values="0 0 0 0 0.347769475   0 0 0 0 0.230946043   0 0 0 0 0.203777803  0 0 0 0.112243226 0" type="matrix" in="shadowInnerInner1"></feColorMatrix>
        </filter>
    </defs>
    <g id="Page-1" stroke="none" stroke-width="1" fill="none" fill-rule="evenodd">
        <g id="F03电影异常状态" transform="translate(-420.000000, -225.000000)">
            <g id="说明" transform="translate(420.000000, 225.000000)">
                <path d="M0,6.00008331 C0,2.6863288 2.69157677,0 5.99915988,0 L594.00084,0 C597.314085,0 600,2.68526677 600,6.00008331 L600,443.999917 C600,447.313671 597.308423,450 594.00084,450 L5.99915988,450 C2.68591537,450 0,447.314733 0,443.999917 L0,6.00008331 Z" id="Mask-Copy" fill="#454454" opacity="0.800000012"></path>
                <g id="banner" transform="translate(71.000000, 49.000000)">
                    <text id="尊敬的猫眼专业版用户" font-family="PingFangSC-Medium, PingFang SC" font-size="27" font-weight="400" fill="#FFFFFF">
                        <tspan x="94.5" y="29.5">尊敬的猫眼专业版用户</tspan>
                    </text>
                    <text id="根据新型冠状肺炎疫情防控要求，自2020" font-family="PingFangSC-Regular, PingFang SC" font-size="21" font-weight="normal" line-spacing="39" fill="#FFFFFF">
                        <tspan x="0" y="82.5">根据新型冠状肺炎疫情防控要求，自2020年1月</tspan>
                        <tspan x="0" y="121.5">24日起院线电影陆续撤档及调档，猫眼专业版从1</tspan>
                        <tspan x="0" y="160.5">月24日起已暂停院线电影票房数据的更新。原有</tspan>
                        <tspan x="0" y="199.5">网播收视、影视头条、猫眼通及其他服务正常开</tspan>
                        <tspan x="0" y="238.5">放。在此特殊时期，让我们团结一心，共克时</tspan>
                        <tspan x="0" y="277.5">艰，也感谢您的支持及理解，此致敬礼。</tspan>
                    </text>
                    <g id="编组" opacity="0.800000012" transform="translate(117.000000, 324.500000)">
                        <g id="猫眼专业版2" opacity="0.5" transform="translate(52.941176, 0.000000)">
                            <g id="形状结合">
                                <use fill="#FFFFFF" fill-rule="evenodd" xlink:href="#path-1"></use>
                                <use fill="black" fill-opacity="1" filter="url(#filter-2)" xlink:href="#path-1"></use>
                            </g>
                        </g>
                        <line x1="0" y1="13.8970588" x2="39.7058824" y2="13.8970588" id="路径-2备份" stroke="#FFFFFF" stroke-width="1.32352941" opacity="0.300000012"></line>
                        <line x1="185.294118" y1="13.8970588" x2="225" y2="13.8970588" id="路径-2" stroke="#FFFFFF" stroke-width="1.32352941" opacity="0.300000012"></line>
                    </g>
                </g>
            </g>
        </g>
    </g>
</svg>