<?xml version="1.0" encoding="UTF-8"?>
<svg width="48px" height="14px" viewBox="0 0 48 14" version="1.1" xmlns="http://www.w3.org/2000/svg" xmlns:xlink="http://www.w3.org/1999/xlink">
    <!-- Generator: Sketch 63.1 (92452) - https://sketch.com -->
    <title>酷云logo</title>
    <desc>Created with Sketch.</desc>
    <defs>
        <polygon id="path-1" points="0.0390786207 0.0306204496 3.08573793 0.0306204496 3.08573793 2.55705555 0.0390786207 2.55705555"></polygon>
        <polygon id="path-3" points="0 13.8779913 47.9409103 13.8779913 47.9409103 0 0 0"></polygon>
    </defs>
    <g id="Page-1" stroke="none" stroke-width="1" fill="none" fill-rule="evenodd">
        <g id="A01综合" transform="translate(-936.000000, -584.000000)">
            <g id="酷云logo" transform="translate(936.000000, 584.000000)">
                <g id="编组">
                    <path d="M39.9978455,8.51715577 L40.5817076,8.51715577 L40.5817076,9.73957636 C40.5161628,9.79050022 40.4342317,9.82960247 40.3359972,9.85680044 C40.23768,9.8839984 40.126949,9.89747339 40.0035559,9.89747339 C39.8339834,9.89747339 39.6846869,9.85853648 39.5555007,9.78033198 C39.4263972,9.70229282 39.3185628,9.5944103 39.2318317,9.45693241 C39.1451007,9.31937186 39.0804662,9.15568803 39.0380938,8.96538492 C38.9957214,8.77524714 38.9745352,8.56807962 38.9745352,8.34396505 C38.9745352,8.13001871 38.994811,7.928886 39.03528,7.7404016 C39.0756662,7.55191719 39.1373214,7.38641465 39.2202455,7.24381131 C39.3030041,7.10120798 39.4062041,6.98836534 39.5295145,6.90503539 C39.6528248,6.82187078 39.7993076,6.78028847 39.96888,6.78028847 C40.1037766,6.78028847 40.2299834,6.81004917 40.3475834,6.86940522 C40.4651007,6.92884394 40.5682179,7.0179607 40.6568524,7.13683814 L40.9169628,6.90255533 C40.8051559,6.74970109 40.6664524,6.63768513 40.5007697,6.56634213 C40.3350041,6.49499913 40.1518593,6.45936896 39.9515007,6.45936896 C39.7318593,6.45936896 39.5353076,6.50698608 39.3618455,6.6019723 C39.1884662,6.69704119 39.0419007,6.8286496 38.9225628,6.99671487 C38.8029766,7.1648628 38.7115283,7.3644248 38.6478869,7.59523553 C38.5843283,7.8262116 38.552549,8.07578811 38.552549,8.34396505 C38.552549,8.62917172 38.5852386,8.88734576 38.6508662,9.11823916 C38.7163283,9.34913256 38.8106731,9.54604917 38.9340662,9.70907165 C39.0573766,9.87209413 39.2096524,9.9977504 39.390811,10.0860405 C39.5719697,10.1742479 39.7761352,10.2183929 40.0035559,10.2183929 C40.2193903,10.2183929 40.4072524,10.1921869 40.5672248,10.1396924 C40.7271972,10.0871978 40.8630041,10.0169295 40.974811,9.92880479 L40.974811,8.21161262 L39.9978455,8.21161262 L39.9978455,8.51715577 Z" id="Fill-1" fill="#FFFFFF"></path>
                    <path d="M42.22344,7.69708325 C42.1115503,7.79562422 42.028709,7.95517462 41.9748331,8.17589978 L41.9632469,8.17589978 C41.9632469,8.06727324 41.9613434,7.96451617 41.9575366,7.86771124 C41.9536469,7.77098898 41.9478538,7.69038709 41.9401572,7.62582292 L41.5701434,7.62582292 C41.5739503,7.65302088 41.5769297,7.69121378 41.5788331,7.7404016 C41.5807366,7.78967208 41.58264,7.84398535 41.5846262,7.90342408 C41.5865297,7.9628628 41.5884331,8.02395489 41.5904193,8.08678303 C41.5923228,8.14969384 41.5933159,8.20822321 41.5933159,8.26253648 L41.5933159,10.1521753 L41.9748331,10.1521753 L41.9748331,8.8635372 C41.9748331,8.74813183 41.9872469,8.63181711 42.0124055,8.51467571 C42.0374814,8.3975343 42.0750538,8.29304119 42.1252055,8.20144438 C42.1751917,8.10968223 42.2379228,8.03503249 42.3130676,7.97724714 C42.3882124,7.91954445 42.4738676,7.89069311 42.5702814,7.89069311 C42.5895641,7.89069311 42.6058676,7.89160247 42.61944,7.89317317 C42.6329297,7.89499188 42.6473297,7.8975546 42.6628055,7.90086135 L42.6743917,7.55447991 C42.6589159,7.5510905 42.6357434,7.54943713 42.6049572,7.54943713 C42.4623641,7.54943713 42.3352469,7.59870761 42.22344,7.69708325" id="Fill-3" fill="#FFFFFF"></path>
                    <path d="M44.2844028,9.29806817 C44.2592441,9.42347643 44.2227476,9.53350834 44.1745821,9.62832922 C44.1263338,9.72323278 44.0636855,9.79680783 43.9866372,9.84938506 C43.909589,9.90196229 43.819051,9.92808557 43.7149407,9.92808557 C43.6108303,9.92808557 43.5202924,9.90196229 43.4432441,9.84938506 C43.3661131,9.79680783 43.3034648,9.72323278 43.2552993,9.62832922 C43.207051,9.53350834 43.1705545,9.42347643 43.1454786,9.29806817 C43.1204028,9.1726599 43.1079062,9.03551269 43.1079062,8.8864612 C43.1079062,8.73749239 43.1204028,8.59860914 43.1454786,8.46981146 C43.1705545,8.34109645 43.207051,8.23007252 43.2552993,8.13698767 C43.3034648,8.04390283 43.3661131,7.97024511 43.4432441,7.91593183 C43.5202924,7.8617839 43.6108303,7.8346686 43.7149407,7.8346686 C43.819051,7.8346686 43.9085959,7.8617839 43.9837407,7.91593183 C44.0588855,7.97024511 44.1215338,8.04390283 44.1716855,8.13698767 C44.2216717,8.23007252 44.2592441,8.34109645 44.2844028,8.46981146 C44.3094786,8.59860914 44.3219752,8.73749239 44.3219752,8.8864612 C44.3219752,9.03551269 44.3094786,9.1726599 44.2844028,9.29806817 M44.4491752,7.91609717 C44.3643476,7.79730239 44.2592441,7.70562292 44.1341131,7.64105874 C44.0088166,7.5766599 43.8690372,7.54433648 43.7149407,7.54433648 C43.5568717,7.54433648 43.4152717,7.5766599 43.2899752,7.64105874 C43.1647614,7.70562292 43.0596579,7.79730239 42.9749959,7.91609717 C42.8900855,8.03505729 42.8255338,8.17766062 42.7813407,8.34398985 C42.7369821,8.51040174 42.7148028,8.6937607 42.7148028,8.89406672 C42.7148028,9.0944554 42.7378924,9.27607832 42.7841545,9.4391008 C42.8304993,9.60212328 42.8968717,9.74307324 42.9836028,9.86186802 C43.0703338,9.98082814 43.1753545,10.0724249 43.2987476,10.1369065 C43.4219752,10.201388 43.5607614,10.2336287 43.7149407,10.2336287 C43.8690372,10.2336287 44.0088166,10.201388 44.1341131,10.1369065 C44.2592441,10.0724249 44.3643476,9.98082814 44.4491752,9.86186802 C44.53392,9.74307324 44.5994648,9.60212328 44.6457269,9.4391008 C44.691989,9.27607832 44.7150786,9.0944554 44.7150786,8.89406672 C44.7150786,8.6937607 44.691989,8.51040174 44.6457269,8.34398985 C44.5994648,8.17766062 44.53392,8.03505729 44.4491752,7.91609717" id="Fill-5" fill="#FFFFFF"></path>
                    <g transform="translate(44.855172, 7.595178)">
                        <mask id="mask-2" fill="white">
                            <use xlink:href="#path-1"></use>
                        </mask>
                        <g id="Clip-8"></g>
                        <polygon id="Fill-7" fill="#FFFFFF" mask="url(#mask-2)" points="2.69836138 0.0306204496 2.25899586 2.16991849 2.25320276 2.16991849 1.74456828 0.0306204496 1.37455448 0.0306204496 0.871547586 2.16991849 0.865754483 2.16991849 0.426388966 0.0306204496 0.0390786207 0.0306204496 0.62294069 2.55705555 1.0565131 2.55705555 1.54801655 0.50431153 1.5537269 0.50431153 2.03935448 2.55705555 2.49022345 2.55705555 3.08575448 0.0306204496"></polygon>
                    </g>
                    <mask id="mask-4" fill="white">
                        <use xlink:href="#path-3"></use>
                    </mask>
                    <g id="Clip-10"></g>
                    <path d="M16.9150345,9.5159826 L18.8157517,9.5159826 L18.8157517,9.0186483 L16.9150345,9.0186483 L16.9150345,9.5159826 Z M17.1807724,5.67825816 L17.1807724,6.8842277 C17.1807724,6.91084699 17.1715034,6.93697027 17.154869,6.95772009 L16.9150345,7.25640174 L16.9150345,5.67825816 L17.1807724,5.67825816 Z M17.6709517,5.18869471 L18.016469,5.18869471 L18.016469,4.65482088 L17.6709517,4.65482088 L17.6709517,5.18869471 Z M18.8158345,5.67825816 L18.8158345,7.31054967 L18.532469,6.95772009 C18.5158345,6.93697027 18.5065655,6.91084699 18.5065655,6.8842277 L18.5065655,5.67825816 L18.8158345,5.67825816 Z M16.9150345,8.03894271 L17.5372966,7.26400725 C17.6234483,7.15670341 17.6709517,7.02178825 17.6709517,6.8842277 L17.6709517,5.67825816 L18.0163862,5.67825816 L18.0163862,6.8842277 C18.0163862,7.02187092 18.0638897,7.15678608 18.1501241,7.26408992 L18.8158345,8.09309065 L18.8158345,8.60356925 L16.9150345,8.60356925 L16.9150345,8.03894271 Z M18.8634207,5.18861204 L18.5065655,5.18861204 L18.5065655,4.65482088 L19.2468414,4.65482088 L19.2468414,4.16517476 L16.4943724,4.16517476 L16.4943724,4.65482088 L17.1807724,4.65482088 L17.1807724,5.18861204 L16.8674483,5.18861204 C16.6233931,5.18861204 16.4248552,5.38693401 16.4248552,5.63072371 L16.4248552,9.56343437 C16.4248552,9.80722408 16.6233931,10.005546 16.8674483,10.005546 L18.8634207,10.005546 C19.1074759,10.005546 19.305931,9.80722408 19.305931,9.56343437 L19.305931,5.63072371 C19.305931,5.38693401 19.1074759,5.18861204 18.8634207,5.18861204 L18.8634207,5.18861204 Z" id="Fill-9" fill="#FFFFFF" mask="url(#mask-4)"></path>
                    <path d="M20.0164966,9.53706309 L21.9173793,9.53706309 L21.9173793,7.21729949 L20.0164966,7.21729949 L20.0164966,9.53706309 Z M21.9649655,6.72765337 L19.9689931,6.72765337 C19.7249379,6.72765337 19.5264,6.92597534 19.5264,7.16976505 L19.5264,9.58459753 C19.5264,9.82830457 19.7249379,10.0265439 19.9689931,10.0265439 L21.9649655,10.0265439 C22.2089379,10.0265439 22.4074759,9.82830457 22.4074759,9.58459753 L22.4074759,7.16976505 C22.4074759,6.92597534 22.2089379,6.72765337 21.9649655,6.72765337 L21.9649655,6.72765337 Z" id="Fill-11" fill="#FFFFFF" mask="url(#mask-4)"></path>
                    <polygon id="Fill-12" fill="#FFFFFF" mask="url(#mask-4)" points="23.5932414 4.64605801 28.4390897 4.64605801 28.4390897 4.15641189 23.5932414 4.15641189"></polygon>
                    <path d="M23.3118786,6.34544336 L24.1751338,6.34544336 L23.5883752,10.0431272 L27.8591338,10.0431272 C28.2688717,10.0431272 28.6023062,9.71013807 28.6023062,9.30084583 L28.6023062,7.55976244 L28.1122097,7.55976244 L28.1122097,9.30084583 C28.1122097,9.44014242 27.9986648,9.55356374 27.8591338,9.55356374 L24.1623062,9.55356374 L24.6713545,6.34544336 L28.720651,6.34544336 L28.720651,5.85579724 L23.3118786,5.85579724 L23.3118786,6.34544336 Z" id="Fill-13" fill="#FFFFFF" mask="url(#mask-4)"></path>
                    <polygon id="Fill-14" fill="#FFFFFF" mask="url(#mask-4)" points="21.2802538 4.93902727 22.3896331 4.93902727 22.3896331 4.44938115 21.2802538 4.44938115 21.2802538 4.14821943 20.7901572 4.14821943 20.7901572 4.44938115 20.0374676 4.44938115 20.0612193 4.20311139 19.5732745 4.15632096 19.4682538 5.24713314 19.9561986 5.29392357 19.9903779 4.93902727 20.7901572 4.93902727 20.7901572 5.83077346 19.5015228 5.83077346 19.5015228 6.32033691 22.5102124 6.32033691 22.5102124 5.83077346 21.2802538 5.83077346"></polygon>
                    <path d="M29.44944,4.62389456 L29.44944,9.58963205 C29.44944,9.86954793 29.67744,10.0972999 29.9576607,10.0972999 L32.1148469,10.0972999 L32.1148469,9.60773648 L29.9576607,9.60773648 C29.9477297,9.60773648 29.9395366,9.59955228 29.9395366,9.58963205 L29.9395366,6.36307658 L32.0913434,6.36307658 L32.0913434,5.87343046 L29.9395366,5.87343046 L29.9395366,4.62389456 C29.9395366,4.61397433 29.9477297,4.60587281 29.9576607,4.60587281 L32.1148469,4.60587281 L32.1148469,4.11622669 L29.9576607,4.11622669 C29.67744,4.11622669 29.44944,4.34397868 29.44944,4.62389456" id="Fill-15" fill="#FFFFFF" mask="url(#mask-4)"></path>
                    <path d="M35.4380441,4.62389456 L35.4380441,9.58963205 C35.4380441,9.86954793 35.6660441,10.0972999 35.9462648,10.0972999 L38.1033683,10.0972999 L38.1033683,9.60773648 L35.9462648,9.60773648 C35.9363338,9.60773648 35.9281407,9.59955228 35.9281407,9.58963205 L35.9281407,6.36307658 L38.0799476,6.36307658 L38.0799476,5.87343046 L35.9281407,5.87343046 L35.9281407,4.62389456 C35.9281407,4.61397433 35.9363338,4.60587281 35.9462648,4.60587281 L38.1033683,4.60587281 L38.1033683,4.11622669 L35.9462648,4.11622669 C35.6660441,4.11622669 35.4380441,4.34397868 35.4380441,4.62389456" id="Fill-16" fill="#FFFFFF" mask="url(#mask-4)"></path>
                    <polygon id="Fill-17" fill="#FFFFFF" mask="url(#mask-4)" points="34.9330841 4.08945859 33.7834014 5.94338463 32.6879255 4.08524249 32.2656083 4.33374431 33.5219669 6.46485816 33.5219669 10.1361707 34.0120634 10.1361707 34.0120634 6.50437375 35.3497738 4.34730196"></polygon>
                    <path d="M13.8786952,6.93902045 C13.8786952,12.3424882 12.3431917,13.8780574 6.93930207,13.8780574 C1.53557793,13.8780574 -8.27586207e-06,12.3424882 -8.27586207e-06,6.93902045 C-8.27586207e-06,1.53547005 1.53557793,-1.65337201e-05 6.93930207,-1.65337201e-05 C12.3431917,-1.65337201e-05 13.8786952,1.53547005 13.8786952,6.93902045" id="Fill-18" fill="#00BED0" mask="url(#mask-4)"></path>
                    <path d="M3.46132966,6.58251211 L3.46132966,6.58251211 C3.24988138,6.78257012 3.21901241,7.10787107 3.38891586,7.34413793 L5.71145379,10.5734215 C5.86281931,10.7838131 6.13517793,10.868879 6.37948138,10.782077 L10.3269848,9.29205816 L8.90651586,8.73974924" id="Fill-19" fill="#FFFFFF" mask="url(#mask-4)"></path>
                    <path d="M10.3587476,4.65372966 L6.37656828,3.13866222 C6.13358897,3.05227353 5.86280276,3.13593416 5.71085793,3.34409369 L3.34073379,6.59255635 C3.19193379,6.79641711 3.19168552,7.07286091 3.34015448,7.27696969 L3.36506483,7.31119449" id="Fill-20" fill="#FFFFFF" mask="url(#mask-4)"></path>
                    <polyline id="Fill-21" fill="#FFFFFF" mask="url(#mask-4)" points="10.3269848 9.29209123 9.95241931 7.71295562 8.32737103 8.50004336"></polyline>
                </g>
            </g>
        </g>
    </g>
</svg>